<mxfile host="app.diagrams.net" agent="Mozilla/5.0 (Windows NT 10.0; Win64; x64) AppleWebKit/537.36 (KHTML, like Gecko) Chrome/131.0.0.0 Safari/537.36" version="24.8.8">
  <diagram name="Page-1" id="58cdce13-f638-feb5-8d6f-7d28b1aa9fa0">
    <mxGraphModel dx="2037" dy="793" grid="1" gridSize="10" guides="1" tooltips="1" connect="1" arrows="1" fold="1" page="1" pageScale="1" pageWidth="1100" pageHeight="850" background="none" math="0" shadow="0">
      <root>
        <mxCell id="0" />
        <mxCell id="1" parent="0" />
        <mxCell id="zZ8E77wxTGWYPWmlCC7I-1" value="" style="whiteSpace=wrap;html=1;aspect=fixed;strokeColor=#000000;fontColor=#EEEEEE;fillColor=#C5FFF5;" vertex="1" parent="1">
          <mxGeometry x="315" y="165" width="470" height="470" as="geometry" />
        </mxCell>
        <mxCell id="4aQQsmctcQ0irrUEqPXQ-3" value="&lt;font style=&quot;font-size: 14px;&quot;&gt;Green Light&lt;/font&gt;" style="ellipse;whiteSpace=wrap;html=1;labelBackgroundColor=none;fillColor=#09555B;strokeColor=#000000;fontColor=#EEEEEE;" parent="1" vertex="1">
          <mxGeometry x="490" y="230" width="120" height="80" as="geometry" />
        </mxCell>
        <mxCell id="4aQQsmctcQ0irrUEqPXQ-4" value="&lt;h1 style=&quot;margin-top: 0px;&quot;&gt;&lt;font color=&quot;#9ac7bf&quot;&gt;State Machine Diagram for Traffic Lights&lt;/font&gt;&lt;br&gt;&lt;/h1&gt;" style="text;html=1;whiteSpace=wrap;overflow=hidden;rounded=0;labelBackgroundColor=none;fontColor=#EEEEEE;strokeColor=none;" parent="1" vertex="1">
          <mxGeometry x="190" y="50" width="470" height="40" as="geometry" />
        </mxCell>
        <mxCell id="4aQQsmctcQ0irrUEqPXQ-5" value="&lt;font style=&quot;font-size: 14px;&quot;&gt;Yellow Light&lt;/font&gt;" style="ellipse;whiteSpace=wrap;html=1;labelBackgroundColor=none;fillColor=#09555B;strokeColor=#000000;fontColor=#EEEEEE;" parent="1" vertex="1">
          <mxGeometry x="490" y="360" width="120" height="80" as="geometry" />
        </mxCell>
        <mxCell id="4aQQsmctcQ0irrUEqPXQ-6" value="&lt;font style=&quot;font-size: 14px;&quot;&gt;Red Light&lt;/font&gt;" style="ellipse;whiteSpace=wrap;html=1;labelBackgroundColor=none;fillColor=#09555B;strokeColor=#000000;fontColor=#EEEEEE;" parent="1" vertex="1">
          <mxGeometry x="490" y="500" width="120" height="80" as="geometry" />
        </mxCell>
        <mxCell id="4aQQsmctcQ0irrUEqPXQ-20" value="" style="group;rotation=80;movable=0;resizable=0;rotatable=0;deletable=0;editable=0;locked=1;connectable=0;labelBackgroundColor=none;fontColor=#EEEEEE;" parent="1" vertex="1" connectable="0">
          <mxGeometry x="280" y="260" width="173.32" height="190" as="geometry" />
        </mxCell>
        <mxCell id="4aQQsmctcQ0irrUEqPXQ-18" value="" style="shape=image;verticalLabelPosition=bottom;labelBackgroundColor=none;verticalAlign=top;aspect=fixed;imageAspect=0;image=data:image/png,iVBORw0KGgoAAAANSUhEUgAAAQAAAAEACAYAAABccqhmAAABS2lUWHRYTUw6Y29tLmFkb2JlLnhtcAAAAAAAPD94cGFja2V0IGJlZ2luPSLvu78iIGlkPSJXNU0wTXBDZWhpSHpyZVN6TlRjemtjOWQiPz4KPHg6eG1wbWV0YSB4bWxuczp4PSJhZG9iZTpuczptZXRhLyIgeDp4bXB0az0iQWRvYmUgWE1QIENvcmUgNS42LWMxNDIgNzkuMTYwOTI0LCAyMDE3LzA3LzEzLTAxOjA2OjM5ICAgICAgICAiPgogPHJkZjpSREYgeG1sbnM6cmRmPSJodHRwOi8vd3d3LnczLm9yZy8xOTk5LzAyLzIyLXJkZi1zeW50YXgtbnMjIj4KICA8cmRmOkRlc2NyaXB0aW9uIHJkZjphYm91dD0iIi8+CiA8L3JkZjpSREY+CjwveDp4bXBtZXRhPgo8P3hwYWNrZXQgZW5kPSJyIj8+nhxg7wAADFVJREFUeJzt3WnMXFUZwPF/WSQsBcomlUUK2AhFaQERZFPKJkVUrEQ0VERjNAjiBwGRoCIYxUSMS0wMikJEguCCgrLGKvuOBZSKgmytaO1qG0KhfnhKLDDnzn1n5ty5987/l8yHzp2596TvfZ452z0HJEmSJEmSJEmSJEmSJEmSJEmSJEmSJEmSJEmSJEmSJEmSJEmSJEmSJEmSJEmSJEmSJEmSJEmSJEmSJEmSJEmSJEmSJEmSJEmSJEmSJEmSJEmSJEmSJEmSJEmSJEmSJEmSJEmSJEmSJEmSJEmSJGBcrhOvWrUq16n1cmsDGwC7AOOBNwMbAxOAKWt8bltgm5LnfBp4ao1/PwQsBJYAfwKWAn8GlgMv9FF2lTRuXJ5QNQE0ywRg6urXDsCuq18bEUFfpSXAMuDh1a/HgftXvxZWXJbWMwGMnrWBPYH9iF/13Yhg32CYhSphOZEQHiRqC7cA92BNoS8mgNGwK3A4sD+wD/C64RZnYJ4BbgduBq4lEoTGwATQTusDRxEBfwQwebjFqcxc4HdEQvgNsGK4xak/E0B7vBT0R65+bTXc4gzds8A1q18mgwQTQPMdAJwIzAC2rOB6K4BVRNv7fsbeBl+b6Gxcm7hP1h9o6Tr7F3A18EPgjxVcrzFMAM20JfB+4CPAXhnOv5wYjlsI3AksIIbsVgL3AS+ufi3p8fwbA2utfk0D1iGGFjcH9iZGJXYhT8fk3cBFwM+IxDDSTADNMg04BZhJDNENwhLil/wBond9DtGWHvaQ2wSi7+JNxGjF7kTNYVDDksuAK4BvEUltJJkAmmEG8FngoAGc6xngDqKj7Bai53zpAM5bhfHEiMZ+RAfnWxnMiMZs4OtEM2GkmADq7UjgNPoP/NuA64ignw083+f56mJd4v9mf+AwYN8+zzcbOJ/oOBwJJoB6mgGcA+zRxzluAH5LDIuNyvj4rsSw5zuBQ/o4z73A2YxAjcAEUC/9/uLPAX5EDHvNHVCZmmoyMSx6AtGP0IvW1whMAPUwDfgS8K4evvsfojPrImJWnF5tH2LEZCawWQ/f/zXwBVrYWWgCGK6NiKr+Z3r47hzg28DlwOJBFqrFNgGOBU6mt1rBBUTTYNkgCzVMJoDhORE4F5g4xu9dS/RY3zjwEo2W6cTIyuFj/N484CxiUlHjmQCqNwX4DvD2MX7PwM+j10Twe+BTxASpxjIBVOt04Ktj/M7FROA/OPjiaA17E82xsSaCM4CvDb441TABVGMKcCHRGVWWv/jD0UuN4HbgYzSwNmACyO9UovOorDlEj/Mv8hRHJb2XGJkZS2fhR2lY34AJIJ8NiKG5Y0t+fgXwRWLcWfVxGvF3KfvU4uXEkOPyXAUaJBNAHvsAlwKTSn7+EuBMXr5gpupjW+ArwPElP/8Y8EEaMC8jVwJYK8tZm+FUYu59meB/GjgGmIXBX2dPEX+jY4i/WTeTiHvg1JyFqrNRrQFcSLQDy7gYOIkWTSoZERsB3yUSQhk/IDoIa8kmwGBsAVxFuafRFgAfB36etUTK7Rjg+8QiJt3cBhwN/DtriXpgAujfrsQTd9uV+OyvgE8Ss8nUfBOJmlyZJw+fJJ5UrNWTmfYB9Gc6MfZbJvhPB96Dwd8m84BDib9tN9sR98r0rCWqiVGoAbyPeAqvmwXEmLKLUbbbDODHlGsSzASuzFuccqwB9OZMygX/bGLnHYO//a4m/tazS3z2CuIeaq02J4AzgfNKfO4S4oGf+VlLozqZT/zNLynx2fNocRJoawIoG/znUn6YSO0zi7gHumltEmhjH0DZ4K9N+05DV7af6PPETMPK2QdQzucw+DV2VxL3RDfnEfdYa7SpBlDml38hcDCxwYb0SlOBm4jNToqcTsUPgzkRqNi7gV92+cxCYE/iARApZRJwD92TwKHEku6VMAGkTaf7H8Lg11iUTQKHUNFCMCaAziYBf+/yGYNfvSibBHakgnvLTsBX24LukzkWYPCrN48R9063zVdnAxvmL04eTU4A19N9bv9+GPzq3WN0X3NwOxq8I1FTE8BFRI9tkZnAIxWURe12F92HCA8k7snGaWICOInYR66I4/wapCuJpcOKnEDcm43StE7A3ek+hn8OsVqvNGjnE0uRF5kKPDDoCzsKELWVecBWBZ+5DDhu0BeW1vBT4AMFx58lFiB5cZAXdRQg1t8vCv6HMfiV33EUrxa0FQ3aK6IpCWAWsVZbygpiZpZUhUOJey7laBrylGkTmgBlJvtMJ+ZwS1U5mO6zAAc2SWiUmwDdVuU9A4Nf1buJ7g+f1X5F6bongNMoHu+/gwbv+KrGO4u4B1OmEvdwbdW5CbAT8GiXz2wKLO73QlIfNgEWdfnMtpTbqShpFJsAl3U5PhODX8O3mO4zBS+uoiC9qGsCOBbYq+D4ZTjTT/VxJcU/WAdTfvfpStWxCbAusTXTxonj/yWq/it7vYCUwTpEUyD1ZOAS4gnW53s5+Sg1AS4gHfwQCzga/KqblcS9mbIxcW/XSt1qANsBTxQcvx44rKcCSdW4juJJaZOAx8d60lF5FuBGor2UMhE38FC9bU3xvpJXEWtYjskoNAEOpDj4v4zBr/qbT9yrKUcDB1RUlq7qVAO4j/Skn6cot7OvVBdPEuP/ndwPTBvLydpeAziI4hl/p1ZVEGlAiu7ZqcQ9P3R1qQHcSzoj3ga8re8CSdW7Fdg3cew+YI+yJ2pzDeBAiqtDp1RVEGnAiu7dacS9P1R1qAEU/frfSqzsKzXVLaRrsKVrAW2tAUyn+Nf/01UVRMqk6B6eRsTA0Aw7AZxdcOxW4O6qCiJlcjdxL6cUxUB2w2wCvAGYW3B8b2JNdqnp3gLcWXB8MvDXohO0sQlQtHT3HzD41R53Efd0ytCWsR9WDWBDYt++9RLHK916WarAIcSzLJ08B2xOPOnaUdtqALNIB//jGPxqnxtIPwS0HvDh6oryf8NKACcXHPtmZaWQqvWNgmND2VZsGE2AvUi375cRT1Mlq0JSg21K8XbjuwB/6XSgTU2Aot17rsLgV3stongpu09UVZCXVF0DWIt4sm9i4mv7EzOnpLbah3i+pZN5xBOEr9pXsC01gCNIB/98DH613+2k17WYSMRIZapOAB8qOPa9ykohDVfRvX58ZaWg2ibA+sA/gfGJr/S9eYLUENsQTeFOFgETXvlmG5oAe5MO/vsx+DU6nibu+U42pXhPjIGqMgEcVXDs0spKIdVD0T1f1FQeqCqbAE+QXtdvJ7pvAS61yY7A3xLHHgamrPlG05cFfz3paZBPAtvnKodUY0U/ijsA/3jpH03vAyga2vhJRWWQ6qbo3j+yigJUlQCOLjh2TUVlkOqm6N6vZAesqpoAzwJbdvjYCuC1wNJc5ZBqbDwxNL5+h2OPEf0EQLObAJPoHPwQDwUZ/BpVS0k/GDeJNRJALlUkgKLtvmZXcH2pzopi4B25L15FAiha+/ymCq4v1VlRDBTtljUQVSSA1KymF4h10aVRdh+wMnEs+/ZhuRPAZsDOiWMPAoszX1+qu8WkVwR+IxFD2eROADsDr0kcuznztaWmSO1/sS7pH9CByJ0AphQcK9oTQBoldxQcK4qhvuVOALsn3l9F7AkoCR4gYqKTVAwNRO4EsEPi/XHAI5mvLTXFI6Qn5U3KeeGcCWA9YLfEsbkUr44qjZKFpJvE2wPr5LpwzgSwivSTTk+QHvqQRs1KIiY6mUzGKfs5E8DOpNs1Vv+ll0vFxDrERrpZ5EwAW5Pe/mtBxutKTZSKidcQsZRFzgRQ1HnxUMbrSk1UFBPZOgJzJoDJBceWZLyu1ERFMVEUS33JmQAWJd5/nnSHhzSqniBio5NULPUtZwLYM/H+c8CjGa8rNdGjRGx0koqlvuXuBOxkQ9L7A0ijajwRG500shNwReL9+aQznTSqniO9Z2AqlvqWMwEsT7w/B1iW8bpSEy0jYqOTVCz1bRijAOtmvKbUZKnYaOQoQGr2UrZpjVLDpWKjkTMBs1VbpBHTyCZAqqd/k4zXlJosFRvZRs2yPWYIPEPngs/LeE2pyebReQkw986QJEmSJEmSJEmSJEmSJEmSJEmSJEmSJEmSJEmSJEmSJEmSJEmSJEmSJEmSJEmSJEmSJEmSJEmSJEmSJEmSJEmSJEmSJEmSJEmSJEmSJEmSJEmSJEmSJEmSJEmSJEmSJEmSJEmSJEmSJEmSJEmSJEmSJElS//4Hmyxv28Uz2yUAAAAASUVORK5CYII=;rotation=-100;fillColor=#09555B;strokeColor=#000000;fontColor=#EEEEEE;" parent="4aQQsmctcQ0irrUEqPXQ-20" vertex="1">
          <mxGeometry x="80" y="-7" width="170.16501696143104" height="170.16501696143104" as="geometry" />
        </mxCell>
        <mxCell id="4aQQsmctcQ0irrUEqPXQ-19" value="" style="triangle;whiteSpace=wrap;html=1;rotation=-10;labelBackgroundColor=none;fillColor=#09555B;strokeColor=#000000;fontColor=#EEEEEE;" parent="4aQQsmctcQ0irrUEqPXQ-20" vertex="1">
          <mxGeometry x="186" y="-15" width="27.081250000000004" height="29.6875" as="geometry" />
        </mxCell>
        <mxCell id="4aQQsmctcQ0irrUEqPXQ-26" value="" style="group;rotation=-100;movable=0;resizable=0;rotatable=0;deletable=0;editable=0;locked=1;connectable=0;labelBackgroundColor=none;fontColor=#EEEEEE;" parent="1" vertex="1" connectable="0">
          <mxGeometry x="640" y="209.69" width="173.32" height="197.16750000000002" as="geometry" />
        </mxCell>
        <mxCell id="4aQQsmctcQ0irrUEqPXQ-27" value="" style="shape=image;verticalLabelPosition=bottom;labelBackgroundColor=none;verticalAlign=top;aspect=fixed;imageAspect=0;image=data:image/png,iVBORw0KGgoAAAANSUhEUgAAAQAAAAEACAYAAABccqhmAAABS2lUWHRYTUw6Y29tLmFkb2JlLnhtcAAAAAAAPD94cGFja2V0IGJlZ2luPSLvu78iIGlkPSJXNU0wTXBDZWhpSHpyZVN6TlRjemtjOWQiPz4KPHg6eG1wbWV0YSB4bWxuczp4PSJhZG9iZTpuczptZXRhLyIgeDp4bXB0az0iQWRvYmUgWE1QIENvcmUgNS42LWMxNDIgNzkuMTYwOTI0LCAyMDE3LzA3LzEzLTAxOjA2OjM5ICAgICAgICAiPgogPHJkZjpSREYgeG1sbnM6cmRmPSJodHRwOi8vd3d3LnczLm9yZy8xOTk5LzAyLzIyLXJkZi1zeW50YXgtbnMjIj4KICA8cmRmOkRlc2NyaXB0aW9uIHJkZjphYm91dD0iIi8+CiA8L3JkZjpSREY+CjwveDp4bXBtZXRhPgo8P3hwYWNrZXQgZW5kPSJyIj8+nhxg7wAADFVJREFUeJzt3WnMXFUZwPF/WSQsBcomlUUK2AhFaQERZFPKJkVUrEQ0VERjNAjiBwGRoCIYxUSMS0wMikJEguCCgrLGKvuOBZSKgmytaO1qG0KhfnhKLDDnzn1n5ty5987/l8yHzp2596TvfZ452z0HJEmSJEmSJEmSJEmSJEmSJEmSJEmSJEmSJEmSJEmSJEmSJEmSJEmSJEmSJEmSJEmSJEmSJEmSJEmSJEmSJEmSJEmSJEmSJEmSJEmSJEmSJEmSJEmSJEmSJEmSJEmSJEmSJEmSJEmSJEmSJEmSJGBcrhOvWrUq16n1cmsDGwC7AOOBNwMbAxOAKWt8bltgm5LnfBp4ao1/PwQsBJYAfwKWAn8GlgMv9FF2lTRuXJ5QNQE0ywRg6urXDsCuq18bEUFfpSXAMuDh1a/HgftXvxZWXJbWMwGMnrWBPYH9iF/13Yhg32CYhSphOZEQHiRqC7cA92BNoS8mgNGwK3A4sD+wD/C64RZnYJ4BbgduBq4lEoTGwATQTusDRxEBfwQwebjFqcxc4HdEQvgNsGK4xak/E0B7vBT0R65+bTXc4gzds8A1q18mgwQTQPMdAJwIzAC2rOB6K4BVRNv7fsbeBl+b6Gxcm7hP1h9o6Tr7F3A18EPgjxVcrzFMAM20JfB+4CPAXhnOv5wYjlsI3AksIIbsVgL3AS+ufi3p8fwbA2utfk0D1iGGFjcH9iZGJXYhT8fk3cBFwM+IxDDSTADNMg04BZhJDNENwhLil/wBond9DtGWHvaQ2wSi7+JNxGjF7kTNYVDDksuAK4BvEUltJJkAmmEG8FngoAGc6xngDqKj7Bai53zpAM5bhfHEiMZ+RAfnWxnMiMZs4OtEM2GkmADq7UjgNPoP/NuA64ignw083+f56mJd4v9mf+AwYN8+zzcbOJ/oOBwJJoB6mgGcA+zRxzluAH5LDIuNyvj4rsSw5zuBQ/o4z73A2YxAjcAEUC/9/uLPAX5EDHvNHVCZmmoyMSx6AtGP0IvW1whMAPUwDfgS8K4evvsfojPrImJWnF5tH2LEZCawWQ/f/zXwBVrYWWgCGK6NiKr+Z3r47hzg28DlwOJBFqrFNgGOBU6mt1rBBUTTYNkgCzVMJoDhORE4F5g4xu9dS/RY3zjwEo2W6cTIyuFj/N484CxiUlHjmQCqNwX4DvD2MX7PwM+j10Twe+BTxASpxjIBVOt04Ktj/M7FROA/OPjiaA17E82xsSaCM4CvDb441TABVGMKcCHRGVWWv/jD0UuN4HbgYzSwNmACyO9UovOorDlEj/Mv8hRHJb2XGJkZS2fhR2lY34AJIJ8NiKG5Y0t+fgXwRWLcWfVxGvF3KfvU4uXEkOPyXAUaJBNAHvsAlwKTSn7+EuBMXr5gpupjW+ArwPElP/8Y8EEaMC8jVwJYK8tZm+FUYu59meB/GjgGmIXBX2dPEX+jY4i/WTeTiHvg1JyFqrNRrQFcSLQDy7gYOIkWTSoZERsB3yUSQhk/IDoIa8kmwGBsAVxFuafRFgAfB36etUTK7Rjg+8QiJt3cBhwN/DtriXpgAujfrsQTd9uV+OyvgE8Ss8nUfBOJmlyZJw+fJJ5UrNWTmfYB9Gc6MfZbJvhPB96Dwd8m84BDib9tN9sR98r0rCWqiVGoAbyPeAqvmwXEmLKLUbbbDODHlGsSzASuzFuccqwB9OZMygX/bGLnHYO//a4m/tazS3z2CuIeaq02J4AzgfNKfO4S4oGf+VlLozqZT/zNLynx2fNocRJoawIoG/znUn6YSO0zi7gHumltEmhjH0DZ4K9N+05DV7af6PPETMPK2QdQzucw+DV2VxL3RDfnEfdYa7SpBlDml38hcDCxwYb0SlOBm4jNToqcTsUPgzkRqNi7gV92+cxCYE/iARApZRJwD92TwKHEku6VMAGkTaf7H8Lg11iUTQKHUNFCMCaAziYBf+/yGYNfvSibBHakgnvLTsBX24LukzkWYPCrN48R9063zVdnAxvmL04eTU4A19N9bv9+GPzq3WN0X3NwOxq8I1FTE8BFRI9tkZnAIxWURe12F92HCA8k7snGaWICOInYR66I4/wapCuJpcOKnEDcm43StE7A3ek+hn8OsVqvNGjnE0uRF5kKPDDoCzsKELWVecBWBZ+5DDhu0BeW1vBT4AMFx58lFiB5cZAXdRQg1t8vCv6HMfiV33EUrxa0FQ3aK6IpCWAWsVZbygpiZpZUhUOJey7laBrylGkTmgBlJvtMJ+ZwS1U5mO6zAAc2SWiUmwDdVuU9A4Nf1buJ7g+f1X5F6bongNMoHu+/gwbv+KrGO4u4B1OmEvdwbdW5CbAT8GiXz2wKLO73QlIfNgEWdfnMtpTbqShpFJsAl3U5PhODX8O3mO4zBS+uoiC9qGsCOBbYq+D4ZTjTT/VxJcU/WAdTfvfpStWxCbAusTXTxonj/yWq/it7vYCUwTpEUyD1ZOAS4gnW53s5+Sg1AS4gHfwQCzga/KqblcS9mbIxcW/XSt1qANsBTxQcvx44rKcCSdW4juJJaZOAx8d60lF5FuBGor2UMhE38FC9bU3xvpJXEWtYjskoNAEOpDj4v4zBr/qbT9yrKUcDB1RUlq7qVAO4j/Skn6cot7OvVBdPEuP/ndwPTBvLydpeAziI4hl/p1ZVEGlAiu7ZqcQ9P3R1qQHcSzoj3ga8re8CSdW7Fdg3cew+YI+yJ2pzDeBAiqtDp1RVEGnAiu7dacS9P1R1qAEU/frfSqzsKzXVLaRrsKVrAW2tAUyn+Nf/01UVRMqk6B6eRsTA0Aw7AZxdcOxW4O6qCiJlcjdxL6cUxUB2w2wCvAGYW3B8b2JNdqnp3gLcWXB8MvDXohO0sQlQtHT3HzD41R53Efd0ytCWsR9WDWBDYt++9RLHK916WarAIcSzLJ08B2xOPOnaUdtqALNIB//jGPxqnxtIPwS0HvDh6oryf8NKACcXHPtmZaWQqvWNgmND2VZsGE2AvUi375cRT1Mlq0JSg21K8XbjuwB/6XSgTU2Aot17rsLgV3stongpu09UVZCXVF0DWIt4sm9i4mv7EzOnpLbah3i+pZN5xBOEr9pXsC01gCNIB/98DH613+2k17WYSMRIZapOAB8qOPa9ykohDVfRvX58ZaWg2ibA+sA/gfGJr/S9eYLUENsQTeFOFgETXvlmG5oAe5MO/vsx+DU6nibu+U42pXhPjIGqMgEcVXDs0spKIdVD0T1f1FQeqCqbAE+QXtdvJ7pvAS61yY7A3xLHHgamrPlG05cFfz3paZBPAtvnKodUY0U/ijsA/3jpH03vAyga2vhJRWWQ6qbo3j+yigJUlQCOLjh2TUVlkOqm6N6vZAesqpoAzwJbdvjYCuC1wNJc5ZBqbDwxNL5+h2OPEf0EQLObAJPoHPwQDwUZ/BpVS0k/GDeJNRJALlUkgKLtvmZXcH2pzopi4B25L15FAiha+/ymCq4v1VlRDBTtljUQVSSA1KymF4h10aVRdh+wMnEs+/ZhuRPAZsDOiWMPAoszX1+qu8WkVwR+IxFD2eROADsDr0kcuznztaWmSO1/sS7pH9CByJ0AphQcK9oTQBoldxQcK4qhvuVOALsn3l9F7AkoCR4gYqKTVAwNRO4EsEPi/XHAI5mvLTXFI6Qn5U3KeeGcCWA9YLfEsbkUr44qjZKFpJvE2wPr5LpwzgSwivSTTk+QHvqQRs1KIiY6mUzGKfs5E8DOpNs1Vv+ll0vFxDrERrpZ5EwAW5Pe/mtBxutKTZSKidcQsZRFzgRQ1HnxUMbrSk1UFBPZOgJzJoDJBceWZLyu1ERFMVEUS33JmQAWJd5/nnSHhzSqniBio5NULPUtZwLYM/H+c8CjGa8rNdGjRGx0koqlvuXuBOxkQ9L7A0ijajwRG500shNwReL9+aQznTSqniO9Z2AqlvqWMwEsT7w/B1iW8bpSEy0jYqOTVCz1bRijAOtmvKbUZKnYaOQoQGr2UrZpjVLDpWKjkTMBs1VbpBHTyCZAqqd/k4zXlJosFRvZRs2yPWYIPEPngs/LeE2pyebReQkw986QJEmSJEmSJEmSJEmSJEmSJEmSJEmSJEmSJEmSJEmSJEmSJEmSJEmSJEmSJEmSJEmSJEmSJEmSJEmSJEmSJEmSJEmSJEmSJEmSJEmSJEmSJEmSJEmSJEmSJEmSJEmSJEmSJEmSJEmSJEmSJEmSJEmSJElS//4Hmyxv28Uz2yUAAAAASUVORK5CYII=;rotation=-280;fillColor=#09555B;strokeColor=#000000;fontColor=#EEEEEE;" parent="4aQQsmctcQ0irrUEqPXQ-26" vertex="1">
          <mxGeometry x="-77" y="27" width="170.16501696143104" height="170.16501696143104" as="geometry" />
        </mxCell>
        <mxCell id="4aQQsmctcQ0irrUEqPXQ-28" value="" style="triangle;whiteSpace=wrap;html=1;rotation=-190;labelBackgroundColor=none;fillColor=#09555B;strokeColor=#000000;fontColor=#EEEEEE;" parent="4aQQsmctcQ0irrUEqPXQ-26" vertex="1">
          <mxGeometry x="-32.73" y="168.31" width="20" height="27.17" as="geometry" />
        </mxCell>
        <mxCell id="4aQQsmctcQ0irrUEqPXQ-32" value="" style="group;rotation=80;movable=0;resizable=0;rotatable=0;deletable=0;editable=0;locked=1;connectable=0;labelBackgroundColor=none;fontColor=#EEEEEE;" parent="1" vertex="1" connectable="0">
          <mxGeometry x="280" y="425" width="256.35" height="190" as="geometry" />
        </mxCell>
        <mxCell id="4aQQsmctcQ0irrUEqPXQ-33" value="" style="shape=image;verticalLabelPosition=bottom;labelBackgroundColor=none;verticalAlign=top;aspect=fixed;imageAspect=0;image=data:image/png,iVBORw0KGgoAAAANSUhEUgAAAQAAAAEACAYAAABccqhmAAABS2lUWHRYTUw6Y29tLmFkb2JlLnhtcAAAAAAAPD94cGFja2V0IGJlZ2luPSLvu78iIGlkPSJXNU0wTXBDZWhpSHpyZVN6TlRjemtjOWQiPz4KPHg6eG1wbWV0YSB4bWxuczp4PSJhZG9iZTpuczptZXRhLyIgeDp4bXB0az0iQWRvYmUgWE1QIENvcmUgNS42LWMxNDIgNzkuMTYwOTI0LCAyMDE3LzA3LzEzLTAxOjA2OjM5ICAgICAgICAiPgogPHJkZjpSREYgeG1sbnM6cmRmPSJodHRwOi8vd3d3LnczLm9yZy8xOTk5LzAyLzIyLXJkZi1zeW50YXgtbnMjIj4KICA8cmRmOkRlc2NyaXB0aW9uIHJkZjphYm91dD0iIi8+CiA8L3JkZjpSREY+CjwveDp4bXBtZXRhPgo8P3hwYWNrZXQgZW5kPSJyIj8+nhxg7wAADFVJREFUeJzt3WnMXFUZwPF/WSQsBcomlUUK2AhFaQERZFPKJkVUrEQ0VERjNAjiBwGRoCIYxUSMS0wMikJEguCCgrLGKvuOBZSKgmytaO1qG0KhfnhKLDDnzn1n5ty5987/l8yHzp2596TvfZ452z0HJEmSJEmSJEmSJEmSJEmSJEmSJEmSJEmSJEmSJEmSJEmSJEmSJEmSJEmSJEmSJEmSJEmSJEmSJEmSJEmSJEmSJEmSJEmSJEmSJEmSJEmSJEmSJEmSJEmSJEmSJEmSJEmSJEmSJEmSJEmSJEmSJGBcrhOvWrUq16n1cmsDGwC7AOOBNwMbAxOAKWt8bltgm5LnfBp4ao1/PwQsBJYAfwKWAn8GlgMv9FF2lTRuXJ5QNQE0ywRg6urXDsCuq18bEUFfpSXAMuDh1a/HgftXvxZWXJbWMwGMnrWBPYH9iF/13Yhg32CYhSphOZEQHiRqC7cA92BNoS8mgNGwK3A4sD+wD/C64RZnYJ4BbgduBq4lEoTGwATQTusDRxEBfwQwebjFqcxc4HdEQvgNsGK4xak/E0B7vBT0R65+bTXc4gzds8A1q18mgwQTQPMdAJwIzAC2rOB6K4BVRNv7fsbeBl+b6Gxcm7hP1h9o6Tr7F3A18EPgjxVcrzFMAM20JfB+4CPAXhnOv5wYjlsI3AksIIbsVgL3AS+ufi3p8fwbA2utfk0D1iGGFjcH9iZGJXYhT8fk3cBFwM+IxDDSTADNMg04BZhJDNENwhLil/wBond9DtGWHvaQ2wSi7+JNxGjF7kTNYVDDksuAK4BvEUltJJkAmmEG8FngoAGc6xngDqKj7Bai53zpAM5bhfHEiMZ+RAfnWxnMiMZs4OtEM2GkmADq7UjgNPoP/NuA64ignw083+f56mJd4v9mf+AwYN8+zzcbOJ/oOBwJJoB6mgGcA+zRxzluAH5LDIuNyvj4rsSw5zuBQ/o4z73A2YxAjcAEUC/9/uLPAX5EDHvNHVCZmmoyMSx6AtGP0IvW1whMAPUwDfgS8K4evvsfojPrImJWnF5tH2LEZCawWQ/f/zXwBVrYWWgCGK6NiKr+Z3r47hzg28DlwOJBFqrFNgGOBU6mt1rBBUTTYNkgCzVMJoDhORE4F5g4xu9dS/RY3zjwEo2W6cTIyuFj/N484CxiUlHjmQCqNwX4DvD2MX7PwM+j10Twe+BTxASpxjIBVOt04Ktj/M7FROA/OPjiaA17E82xsSaCM4CvDb441TABVGMKcCHRGVWWv/jD0UuN4HbgYzSwNmACyO9UovOorDlEj/Mv8hRHJb2XGJkZS2fhR2lY34AJIJ8NiKG5Y0t+fgXwRWLcWfVxGvF3KfvU4uXEkOPyXAUaJBNAHvsAlwKTSn7+EuBMXr5gpupjW+ArwPElP/8Y8EEaMC8jVwJYK8tZm+FUYu59meB/GjgGmIXBX2dPEX+jY4i/WTeTiHvg1JyFqrNRrQFcSLQDy7gYOIkWTSoZERsB3yUSQhk/IDoIa8kmwGBsAVxFuafRFgAfB36etUTK7Rjg+8QiJt3cBhwN/DtriXpgAujfrsQTd9uV+OyvgE8Ss8nUfBOJmlyZJw+fJJ5UrNWTmfYB9Gc6MfZbJvhPB96Dwd8m84BDib9tN9sR98r0rCWqiVGoAbyPeAqvmwXEmLKLUbbbDODHlGsSzASuzFuccqwB9OZMygX/bGLnHYO//a4m/tazS3z2CuIeaq02J4AzgfNKfO4S4oGf+VlLozqZT/zNLynx2fNocRJoawIoG/znUn6YSO0zi7gHumltEmhjH0DZ4K9N+05DV7af6PPETMPK2QdQzucw+DV2VxL3RDfnEfdYa7SpBlDml38hcDCxwYb0SlOBm4jNToqcTsUPgzkRqNi7gV92+cxCYE/iARApZRJwD92TwKHEku6VMAGkTaf7H8Lg11iUTQKHUNFCMCaAziYBf+/yGYNfvSibBHakgnvLTsBX24LukzkWYPCrN48R9063zVdnAxvmL04eTU4A19N9bv9+GPzq3WN0X3NwOxq8I1FTE8BFRI9tkZnAIxWURe12F92HCA8k7snGaWICOInYR66I4/wapCuJpcOKnEDcm43StE7A3ek+hn8OsVqvNGjnE0uRF5kKPDDoCzsKELWVecBWBZ+5DDhu0BeW1vBT4AMFx58lFiB5cZAXdRQg1t8vCv6HMfiV33EUrxa0FQ3aK6IpCWAWsVZbygpiZpZUhUOJey7laBrylGkTmgBlJvtMJ+ZwS1U5mO6zAAc2SWiUmwDdVuU9A4Nf1buJ7g+f1X5F6bongNMoHu+/gwbv+KrGO4u4B1OmEvdwbdW5CbAT8GiXz2wKLO73QlIfNgEWdfnMtpTbqShpFJsAl3U5PhODX8O3mO4zBS+uoiC9qGsCOBbYq+D4ZTjTT/VxJcU/WAdTfvfpStWxCbAusTXTxonj/yWq/it7vYCUwTpEUyD1ZOAS4gnW53s5+Sg1AS4gHfwQCzga/KqblcS9mbIxcW/XSt1qANsBTxQcvx44rKcCSdW4juJJaZOAx8d60lF5FuBGor2UMhE38FC9bU3xvpJXEWtYjskoNAEOpDj4v4zBr/qbT9yrKUcDB1RUlq7qVAO4j/Skn6cot7OvVBdPEuP/ndwPTBvLydpeAziI4hl/p1ZVEGlAiu7ZqcQ9P3R1qQHcSzoj3ga8re8CSdW7Fdg3cew+YI+yJ2pzDeBAiqtDp1RVEGnAiu7dacS9P1R1qAEU/frfSqzsKzXVLaRrsKVrAW2tAUyn+Nf/01UVRMqk6B6eRsTA0Aw7AZxdcOxW4O6qCiJlcjdxL6cUxUB2w2wCvAGYW3B8b2JNdqnp3gLcWXB8MvDXohO0sQlQtHT3HzD41R53Efd0ytCWsR9WDWBDYt++9RLHK916WarAIcSzLJ08B2xOPOnaUdtqALNIB//jGPxqnxtIPwS0HvDh6oryf8NKACcXHPtmZaWQqvWNgmND2VZsGE2AvUi375cRT1Mlq0JSg21K8XbjuwB/6XSgTU2Aot17rsLgV3stongpu09UVZCXVF0DWIt4sm9i4mv7EzOnpLbah3i+pZN5xBOEr9pXsC01gCNIB/98DH613+2k17WYSMRIZapOAB8qOPa9ykohDVfRvX58ZaWg2ibA+sA/gfGJr/S9eYLUENsQTeFOFgETXvlmG5oAe5MO/vsx+DU6nibu+U42pXhPjIGqMgEcVXDs0spKIdVD0T1f1FQeqCqbAE+QXtdvJ7pvAS61yY7A3xLHHgamrPlG05cFfz3paZBPAtvnKodUY0U/ijsA/3jpH03vAyga2vhJRWWQ6qbo3j+yigJUlQCOLjh2TUVlkOqm6N6vZAesqpoAzwJbdvjYCuC1wNJc5ZBqbDwxNL5+h2OPEf0EQLObAJPoHPwQDwUZ/BpVS0k/GDeJNRJALlUkgKLtvmZXcH2pzopi4B25L15FAiha+/ymCq4v1VlRDBTtljUQVSSA1KymF4h10aVRdh+wMnEs+/ZhuRPAZsDOiWMPAoszX1+qu8WkVwR+IxFD2eROADsDr0kcuznztaWmSO1/sS7pH9CByJ0AphQcK9oTQBoldxQcK4qhvuVOALsn3l9F7AkoCR4gYqKTVAwNRO4EsEPi/XHAI5mvLTXFI6Qn5U3KeeGcCWA9YLfEsbkUr44qjZKFpJvE2wPr5LpwzgSwivSTTk+QHvqQRs1KIiY6mUzGKfs5E8DOpNs1Vv+ll0vFxDrERrpZ5EwAW5Pe/mtBxutKTZSKidcQsZRFzgRQ1HnxUMbrSk1UFBPZOgJzJoDJBceWZLyu1ERFMVEUS33JmQAWJd5/nnSHhzSqniBio5NULPUtZwLYM/H+c8CjGa8rNdGjRGx0koqlvuXuBOxkQ9L7A0ijajwRG500shNwReL9+aQznTSqniO9Z2AqlvqWMwEsT7w/B1iW8bpSEy0jYqOTVCz1bRijAOtmvKbUZKnYaOQoQGr2UrZpjVLDpWKjkTMBs1VbpBHTyCZAqqd/k4zXlJosFRvZRs2yPWYIPEPngs/LeE2pyebReQkw986QJEmSJEmSJEmSJEmSJEmSJEmSJEmSJEmSJEmSJEmSJEmSJEmSJEmSJEmSJEmSJEmSJEmSJEmSJEmSJEmSJEmSJEmSJEmSJEmSJEmSJEmSJEmSJEmSJEmSJEmSJEmSJEmSJEmSJEmSJEmSJEmSJEmSJElS//4Hmyxv28Uz2yUAAAAASUVORK5CYII=;rotation=-100;fillColor=#09555B;strokeColor=#000000;fontColor=#EEEEEE;" parent="4aQQsmctcQ0irrUEqPXQ-32" vertex="1">
          <mxGeometry x="83.96" y="-10.41" width="172.03" height="172.03" as="geometry" />
        </mxCell>
        <mxCell id="4aQQsmctcQ0irrUEqPXQ-34" value="" style="triangle;whiteSpace=wrap;html=1;rotation=-10;labelBackgroundColor=none;fillColor=#09555B;strokeColor=#000000;fontColor=#EEEEEE;" parent="4aQQsmctcQ0irrUEqPXQ-32" vertex="1">
          <mxGeometry x="186" y="-15" width="27.081250000000004" height="29.6875" as="geometry" />
        </mxCell>
        <mxCell id="4aQQsmctcQ0irrUEqPXQ-35" value="" style="group;rotation=-100;movable=0;resizable=0;rotatable=0;deletable=0;editable=0;locked=1;connectable=0;labelBackgroundColor=none;fontColor=#EEEEEE;" parent="1" vertex="1" connectable="0">
          <mxGeometry x="640" y="370" width="173.32" height="197.16750000000002" as="geometry" />
        </mxCell>
        <mxCell id="4aQQsmctcQ0irrUEqPXQ-36" value="" style="shape=image;verticalLabelPosition=bottom;labelBackgroundColor=none;verticalAlign=top;aspect=fixed;imageAspect=0;image=data:image/png,iVBORw0KGgoAAAANSUhEUgAAAQAAAAEACAYAAABccqhmAAABS2lUWHRYTUw6Y29tLmFkb2JlLnhtcAAAAAAAPD94cGFja2V0IGJlZ2luPSLvu78iIGlkPSJXNU0wTXBDZWhpSHpyZVN6TlRjemtjOWQiPz4KPHg6eG1wbWV0YSB4bWxuczp4PSJhZG9iZTpuczptZXRhLyIgeDp4bXB0az0iQWRvYmUgWE1QIENvcmUgNS42LWMxNDIgNzkuMTYwOTI0LCAyMDE3LzA3LzEzLTAxOjA2OjM5ICAgICAgICAiPgogPHJkZjpSREYgeG1sbnM6cmRmPSJodHRwOi8vd3d3LnczLm9yZy8xOTk5LzAyLzIyLXJkZi1zeW50YXgtbnMjIj4KICA8cmRmOkRlc2NyaXB0aW9uIHJkZjphYm91dD0iIi8+CiA8L3JkZjpSREY+CjwveDp4bXBtZXRhPgo8P3hwYWNrZXQgZW5kPSJyIj8+nhxg7wAADFVJREFUeJzt3WnMXFUZwPF/WSQsBcomlUUK2AhFaQERZFPKJkVUrEQ0VERjNAjiBwGRoCIYxUSMS0wMikJEguCCgrLGKvuOBZSKgmytaO1qG0KhfnhKLDDnzn1n5ty5987/l8yHzp2596TvfZ452z0HJEmSJEmSJEmSJEmSJEmSJEmSJEmSJEmSJEmSJEmSJEmSJEmSJEmSJEmSJEmSJEmSJEmSJEmSJEmSJEmSJEmSJEmSJEmSJEmSJEmSJEmSJEmSJEmSJEmSJEmSJEmSJEmSJEmSJEmSJEmSJEmSJGBcrhOvWrUq16n1cmsDGwC7AOOBNwMbAxOAKWt8bltgm5LnfBp4ao1/PwQsBJYAfwKWAn8GlgMv9FF2lTRuXJ5QNQE0ywRg6urXDsCuq18bEUFfpSXAMuDh1a/HgftXvxZWXJbWMwGMnrWBPYH9iF/13Yhg32CYhSphOZEQHiRqC7cA92BNoS8mgNGwK3A4sD+wD/C64RZnYJ4BbgduBq4lEoTGwATQTusDRxEBfwQwebjFqcxc4HdEQvgNsGK4xak/E0B7vBT0R65+bTXc4gzds8A1q18mgwQTQPMdAJwIzAC2rOB6K4BVRNv7fsbeBl+b6Gxcm7hP1h9o6Tr7F3A18EPgjxVcrzFMAM20JfB+4CPAXhnOv5wYjlsI3AksIIbsVgL3AS+ufi3p8fwbA2utfk0D1iGGFjcH9iZGJXYhT8fk3cBFwM+IxDDSTADNMg04BZhJDNENwhLil/wBond9DtGWHvaQ2wSi7+JNxGjF7kTNYVDDksuAK4BvEUltJJkAmmEG8FngoAGc6xngDqKj7Bai53zpAM5bhfHEiMZ+RAfnWxnMiMZs4OtEM2GkmADq7UjgNPoP/NuA64ignw083+f56mJd4v9mf+AwYN8+zzcbOJ/oOBwJJoB6mgGcA+zRxzluAH5LDIuNyvj4rsSw5zuBQ/o4z73A2YxAjcAEUC/9/uLPAX5EDHvNHVCZmmoyMSx6AtGP0IvW1whMAPUwDfgS8K4evvsfojPrImJWnF5tH2LEZCawWQ/f/zXwBVrYWWgCGK6NiKr+Z3r47hzg28DlwOJBFqrFNgGOBU6mt1rBBUTTYNkgCzVMJoDhORE4F5g4xu9dS/RY3zjwEo2W6cTIyuFj/N484CxiUlHjmQCqNwX4DvD2MX7PwM+j10Twe+BTxASpxjIBVOt04Ktj/M7FROA/OPjiaA17E82xsSaCM4CvDb441TABVGMKcCHRGVWWv/jD0UuN4HbgYzSwNmACyO9UovOorDlEj/Mv8hRHJb2XGJkZS2fhR2lY34AJIJ8NiKG5Y0t+fgXwRWLcWfVxGvF3KfvU4uXEkOPyXAUaJBNAHvsAlwKTSn7+EuBMXr5gpupjW+ArwPElP/8Y8EEaMC8jVwJYK8tZm+FUYu59meB/GjgGmIXBX2dPEX+jY4i/WTeTiHvg1JyFqrNRrQFcSLQDy7gYOIkWTSoZERsB3yUSQhk/IDoIa8kmwGBsAVxFuafRFgAfB36etUTK7Rjg+8QiJt3cBhwN/DtriXpgAujfrsQTd9uV+OyvgE8Ss8nUfBOJmlyZJw+fJJ5UrNWTmfYB9Gc6MfZbJvhPB96Dwd8m84BDib9tN9sR98r0rCWqiVGoAbyPeAqvmwXEmLKLUbbbDODHlGsSzASuzFuccqwB9OZMygX/bGLnHYO//a4m/tazS3z2CuIeaq02J4AzgfNKfO4S4oGf+VlLozqZT/zNLynx2fNocRJoawIoG/znUn6YSO0zi7gHumltEmhjH0DZ4K9N+05DV7af6PPETMPK2QdQzucw+DV2VxL3RDfnEfdYa7SpBlDml38hcDCxwYb0SlOBm4jNToqcTsUPgzkRqNi7gV92+cxCYE/iARApZRJwD92TwKHEku6VMAGkTaf7H8Lg11iUTQKHUNFCMCaAziYBf+/yGYNfvSibBHakgnvLTsBX24LukzkWYPCrN48R9063zVdnAxvmL04eTU4A19N9bv9+GPzq3WN0X3NwOxq8I1FTE8BFRI9tkZnAIxWURe12F92HCA8k7snGaWICOInYR66I4/wapCuJpcOKnEDcm43StE7A3ek+hn8OsVqvNGjnE0uRF5kKPDDoCzsKELWVecBWBZ+5DDhu0BeW1vBT4AMFx58lFiB5cZAXdRQg1t8vCv6HMfiV33EUrxa0FQ3aK6IpCWAWsVZbygpiZpZUhUOJey7laBrylGkTmgBlJvtMJ+ZwS1U5mO6zAAc2SWiUmwDdVuU9A4Nf1buJ7g+f1X5F6bongNMoHu+/gwbv+KrGO4u4B1OmEvdwbdW5CbAT8GiXz2wKLO73QlIfNgEWdfnMtpTbqShpFJsAl3U5PhODX8O3mO4zBS+uoiC9qGsCOBbYq+D4ZTjTT/VxJcU/WAdTfvfpStWxCbAusTXTxonj/yWq/it7vYCUwTpEUyD1ZOAS4gnW53s5+Sg1AS4gHfwQCzga/KqblcS9mbIxcW/XSt1qANsBTxQcvx44rKcCSdW4juJJaZOAx8d60lF5FuBGor2UMhE38FC9bU3xvpJXEWtYjskoNAEOpDj4v4zBr/qbT9yrKUcDB1RUlq7qVAO4j/Skn6cot7OvVBdPEuP/ndwPTBvLydpeAziI4hl/p1ZVEGlAiu7ZqcQ9P3R1qQHcSzoj3ga8re8CSdW7Fdg3cew+YI+yJ2pzDeBAiqtDp1RVEGnAiu7dacS9P1R1qAEU/frfSqzsKzXVLaRrsKVrAW2tAUyn+Nf/01UVRMqk6B6eRsTA0Aw7AZxdcOxW4O6qCiJlcjdxL6cUxUB2w2wCvAGYW3B8b2JNdqnp3gLcWXB8MvDXohO0sQlQtHT3HzD41R53Efd0ytCWsR9WDWBDYt++9RLHK916WarAIcSzLJ08B2xOPOnaUdtqALNIB//jGPxqnxtIPwS0HvDh6oryf8NKACcXHPtmZaWQqvWNgmND2VZsGE2AvUi375cRT1Mlq0JSg21K8XbjuwB/6XSgTU2Aot17rsLgV3stongpu09UVZCXVF0DWIt4sm9i4mv7EzOnpLbah3i+pZN5xBOEr9pXsC01gCNIB/98DH613+2k17WYSMRIZapOAB8qOPa9ykohDVfRvX58ZaWg2ibA+sA/gfGJr/S9eYLUENsQTeFOFgETXvlmG5oAe5MO/vsx+DU6nibu+U42pXhPjIGqMgEcVXDs0spKIdVD0T1f1FQeqCqbAE+QXtdvJ7pvAS61yY7A3xLHHgamrPlG05cFfz3paZBPAtvnKodUY0U/ijsA/3jpH03vAyga2vhJRWWQ6qbo3j+yigJUlQCOLjh2TUVlkOqm6N6vZAesqpoAzwJbdvjYCuC1wNJc5ZBqbDwxNL5+h2OPEf0EQLObAJPoHPwQDwUZ/BpVS0k/GDeJNRJALlUkgKLtvmZXcH2pzopi4B25L15FAiha+/ymCq4v1VlRDBTtljUQVSSA1KymF4h10aVRdh+wMnEs+/ZhuRPAZsDOiWMPAoszX1+qu8WkVwR+IxFD2eROADsDr0kcuznztaWmSO1/sS7pH9CByJ0AphQcK9oTQBoldxQcK4qhvuVOALsn3l9F7AkoCR4gYqKTVAwNRO4EsEPi/XHAI5mvLTXFI6Qn5U3KeeGcCWA9YLfEsbkUr44qjZKFpJvE2wPr5LpwzgSwivSTTk+QHvqQRs1KIiY6mUzGKfs5E8DOpNs1Vv+ll0vFxDrERrpZ5EwAW5Pe/mtBxutKTZSKidcQsZRFzgRQ1HnxUMbrSk1UFBPZOgJzJoDJBceWZLyu1ERFMVEUS33JmQAWJd5/nnSHhzSqniBio5NULPUtZwLYM/H+c8CjGa8rNdGjRGx0koqlvuXuBOxkQ9L7A0ijajwRG500shNwReL9+aQznTSqniO9Z2AqlvqWMwEsT7w/B1iW8bpSEy0jYqOTVCz1bRijAOtmvKbUZKnYaOQoQGr2UrZpjVLDpWKjkTMBs1VbpBHTyCZAqqd/k4zXlJosFRvZRs2yPWYIPEPngs/LeE2pyebReQkw986QJEmSJEmSJEmSJEmSJEmSJEmSJEmSJEmSJEmSJEmSJEmSJEmSJEmSJEmSJEmSJEmSJEmSJEmSJEmSJEmSJEmSJEmSJEmSJEmSJEmSJEmSJEmSJEmSJEmSJEmSJEmSJEmSJEmSJEmSJEmSJEmSJEmSJElS//4Hmyxv28Uz2yUAAAAASUVORK5CYII=;rotation=-280;fillColor=#09555B;strokeColor=#000000;fontColor=#EEEEEE;" parent="4aQQsmctcQ0irrUEqPXQ-35" vertex="1">
          <mxGeometry x="-77" y="27" width="170.16501696143104" height="170.16501696143104" as="geometry" />
        </mxCell>
        <mxCell id="4aQQsmctcQ0irrUEqPXQ-37" value="" style="triangle;whiteSpace=wrap;html=1;rotation=-190;labelBackgroundColor=none;fillColor=#09555B;strokeColor=#000000;fontColor=#EEEEEE;" parent="4aQQsmctcQ0irrUEqPXQ-35" vertex="1">
          <mxGeometry x="-32.73" y="168.31" width="20" height="27.17" as="geometry" />
        </mxCell>
        <mxCell id="4aQQsmctcQ0irrUEqPXQ-38" value="&lt;font color=&quot;#000000&quot;&gt;t = 5 seconds&lt;/font&gt;" style="text;html=1;align=center;verticalAlign=middle;whiteSpace=wrap;rounded=0;labelBackgroundColor=none;fontColor=#EEEEEE;strokeColor=none;" parent="1" vertex="1">
          <mxGeometry x="330" y="500" width="80" height="30" as="geometry" />
        </mxCell>
        <mxCell id="4aQQsmctcQ0irrUEqPXQ-39" value="&lt;font color=&quot;#000000&quot;&gt;t = 1 seconds&lt;/font&gt;" style="text;html=1;align=center;verticalAlign=middle;whiteSpace=wrap;rounded=0;labelBackgroundColor=none;fontColor=#EEEEEE;strokeColor=none;" parent="1" vertex="1">
          <mxGeometry x="320" y="320" width="80" height="30" as="geometry" />
        </mxCell>
        <mxCell id="4aQQsmctcQ0irrUEqPXQ-40" value="&lt;font color=&quot;#000000&quot;&gt;t = 5 seconds&lt;/font&gt;" style="text;html=1;align=center;verticalAlign=middle;whiteSpace=wrap;rounded=0;labelBackgroundColor=none;fontColor=#EEEEEE;strokeColor=none;" parent="1" vertex="1">
          <mxGeometry x="700" y="310" width="80" height="30" as="geometry" />
        </mxCell>
        <mxCell id="4aQQsmctcQ0irrUEqPXQ-41" value="&lt;font color=&quot;#000000&quot;&gt;t = 1 seconds&lt;/font&gt;" style="text;html=1;align=center;verticalAlign=middle;whiteSpace=wrap;rounded=0;labelBackgroundColor=none;fontColor=#EEEEEE;strokeColor=none;" parent="1" vertex="1">
          <mxGeometry x="690" y="470" width="80" height="30" as="geometry" />
        </mxCell>
        <mxCell id="4aQQsmctcQ0irrUEqPXQ-42" value="&lt;font color=&quot;#000000&quot;&gt;flag = r&lt;/font&gt;" style="text;html=1;align=center;verticalAlign=middle;whiteSpace=wrap;rounded=0;labelBackgroundColor=none;fontColor=#EEEEEE;strokeColor=none;" parent="1" vertex="1">
          <mxGeometry x="410" y="320" width="80" height="30" as="geometry" />
        </mxCell>
        <mxCell id="4aQQsmctcQ0irrUEqPXQ-44" value="&lt;font color=&quot;#000000&quot;&gt;flag = g&lt;/font&gt;" style="text;html=1;align=center;verticalAlign=middle;whiteSpace=wrap;rounded=0;labelBackgroundColor=none;fontColor=#EEEEEE;strokeColor=none;" parent="1" vertex="1">
          <mxGeometry x="610" y="470" width="80" height="30" as="geometry" />
        </mxCell>
        <mxCell id="zZ8E77wxTGWYPWmlCC7I-2" value="" style="endArrow=none;html=1;rounded=0;strokeColor=#000000;exitX=-0.002;exitY=0.108;exitDx=0;exitDy=0;exitPerimeter=0;entryX=0.997;entryY=0.103;entryDx=0;entryDy=0;entryPerimeter=0;" edge="1" parent="1" source="zZ8E77wxTGWYPWmlCC7I-1" target="zZ8E77wxTGWYPWmlCC7I-1">
          <mxGeometry width="50" height="50" relative="1" as="geometry">
            <mxPoint x="830" y="340" as="sourcePoint" />
            <mxPoint x="790" y="220" as="targetPoint" />
          </mxGeometry>
        </mxCell>
        <mxCell id="zZ8E77wxTGWYPWmlCC7I-3" value="&lt;font color=&quot;#000000&quot;&gt;Arduino 1&lt;/font&gt;" style="text;html=1;align=center;verticalAlign=middle;whiteSpace=wrap;rounded=0;fontColor=#EEEEEE;strokeColor=none;" vertex="1" parent="1">
          <mxGeometry x="330" y="169.69" width="60" height="40" as="geometry" />
        </mxCell>
      </root>
    </mxGraphModel>
  </diagram>
</mxfile>
